<svg id="svg" version="1.1" xmlns="http://www.w3.org/2000/svg" xmlns:xlink="http://www.w3.org/1999/xlink" width="400" height="400" viewBox="0, 0, 400,400"><g id="svgg"><path id="path0" d="M173.006 10.146 C 172.460 10.545,172.211 11.354,172.081 13.146 L 171.904 15.600 159.852 15.625 C 141.275 15.663,141.263 15.665,140.911 19.554 L 140.689 22.000 135.044 22.003 C 125.091 22.008,123.003 22.679,122.561 26.011 L 122.309 27.910 117.654 28.180 C 110.506 28.595,109.611 29.164,109.602 33.300 C 109.600 34.386,109.566 34.400,107.032 34.400 C 101.141 34.400,98.047 35.911,97.704 38.955 L 97.496 40.800 94.628 40.800 C 91.094 40.800,90.800 41.067,90.800 44.280 L 90.800 46.800 88.374 46.800 C 85.349 46.800,84.400 47.270,84.400 48.767 C 84.400 51.264,81.726 53.073,77.549 53.404 C 73.588 53.718,72.400 54.351,72.400 56.150 C 72.400 59.101,72.084 59.498,69.593 59.678 C 66.576 59.896,66.000 60.400,66.000 62.820 C 66.000 65.317,65.317 66.000,62.820 66.000 C 60.396 66.000,59.896 66.575,59.676 69.616 L 59.506 71.965 57.653 72.207 C 53.968 72.687,53.836 72.842,53.410 77.200 C 53.159 79.757,53.130 79.811,51.607 80.458 C 50.515 80.922,49.813 81.598,49.222 82.758 C 48.761 83.661,48.138 84.400,47.839 84.400 C 47.129 84.400,46.812 85.656,46.805 88.500 L 46.800 90.800 44.280 90.800 C 41.067 90.800,40.800 91.094,40.800 94.628 L 40.800 97.496 38.955 97.704 C 35.919 98.046,34.400 101.141,34.400 106.983 L 34.400 109.501 32.180 109.685 C 28.852 109.961,28.696 110.243,28.248 116.799 L 27.866 122.400 26.177 122.400 C 22.585 122.400,22.094 123.852,22.034 134.644 L 22.000 140.689 19.554 140.911 C 15.708 141.259,15.664 141.451,15.625 158.253 L 15.600 168.706 13.953 170.353 C 13.047 171.259,12.012 172.003,11.653 172.006 C 9.726 172.024,9.800 170.901,9.800 200.000 C 9.800 229.099,9.726 227.976,11.653 227.994 C 12.012 227.997,13.026 228.720,13.906 229.600 L 15.505 231.199 15.693 244.100 C 15.917 259.515,15.808 259.189,20.700 259.198 L 22.000 259.200 22.034 265.300 C 22.094 276.153,22.581 277.600,26.177 277.600 L 27.866 277.600 28.248 283.201 C 28.692 289.707,28.818 289.936,32.137 290.278 L 34.400 290.512 34.400 293.210 C 34.400 294.826,34.640 296.368,34.998 297.054 C 35.326 297.684,35.596 298.491,35.598 298.846 C 35.602 300.074,37.150 301.492,38.990 301.956 L 40.800 302.412 40.800 305.326 C 40.800 308.911,41.060 309.200,44.280 309.200 L 46.800 309.200 46.805 311.500 C 46.812 314.344,47.129 315.600,47.839 315.600 C 48.138 315.600,48.761 316.339,49.222 317.242 C 49.814 318.404,50.514 319.077,51.612 319.542 C 53.090 320.169,53.175 320.304,53.402 322.400 C 53.867 326.698,54.399 327.260,58.400 327.692 C 59.318 327.791,59.420 328.004,59.638 330.284 C 59.933 333.372,60.423 333.998,62.549 334.005 C 65.689 334.016,65.999 334.244,66.006 336.547 C 66.015 339.537,67.000 340.400,70.402 340.400 C 71.947 340.400,71.952 340.405,72.209 342.300 C 72.728 346.117,72.757 346.139,77.894 346.592 C 81.726 346.930,84.400 348.847,84.400 351.257 C 84.400 352.691,85.507 353.200,88.626 353.200 L 90.800 353.200 90.800 355.720 C 90.800 358.941,91.089 359.200,94.680 359.200 C 97.349 359.200,97.600 359.270,97.600 360.013 C 97.600 362.495,99.793 364.800,102.157 364.800 C 102.704 364.800,103.264 364.980,103.400 365.200 C 103.536 365.420,104.966 365.600,106.578 365.600 L 109.508 365.600 109.778 367.759 C 110.182 370.999,110.620 371.240,116.952 371.726 L 122.315 372.137 122.564 374.012 C 123.003 377.319,125.109 377.992,135.044 377.997 L 140.688 378.000 140.922 380.267 C 141.345 384.363,140.514 384.157,157.350 384.337 L 171.897 384.493 172.115 386.893 C 172.440 390.482,170.067 390.200,200.000 390.200 C 229.964 390.200,227.559 390.489,227.889 386.846 L 228.111 384.400 239.956 384.375 C 258.283 384.337,258.666 384.254,259.078 380.263 L 259.312 378.000 265.756 377.976 C 275.756 377.939,277.591 377.363,277.606 374.256 C 277.616 372.255,277.885 372.140,283.510 371.734 C 289.687 371.288,289.940 371.143,290.278 367.863 L 290.512 365.600 293.210 365.600 C 294.826 365.600,296.368 365.360,297.054 365.002 C 297.684 364.674,298.491 364.404,298.846 364.402 C 300.074 364.398,301.492 362.850,301.956 361.010 L 302.412 359.200 305.326 359.200 C 308.911 359.200,309.200 358.940,309.200 355.720 L 309.200 353.200 311.500 353.195 C 314.344 353.188,315.600 352.871,315.600 352.161 C 315.600 351.862,316.339 351.239,317.242 350.778 C 318.394 350.191,319.080 349.482,319.540 348.407 C 320.229 346.793,321.131 346.415,324.318 346.404 C 325.980 346.399,327.598 344.880,327.605 343.318 C 327.618 340.797,327.891 340.504,330.401 340.322 C 333.375 340.107,334.000 339.587,334.000 337.325 C 334.000 334.592,334.487 334.000,336.738 334.000 C 339.487 334.000,340.106 333.392,340.316 330.488 C 340.505 327.882,340.780 327.618,343.318 327.605 C 344.880 327.598,346.399 325.980,346.404 324.318 C 346.415 321.132,346.793 320.229,348.404 319.541 C 349.372 319.128,350.188 318.394,350.624 317.544 C 351.004 316.805,351.739 315.804,352.257 315.319 C 353.062 314.567,353.200 314.054,353.200 311.819 L 353.200 309.200 355.720 309.200 C 358.941 309.200,359.200 308.911,359.200 305.320 C 359.200 302.651,359.270 302.400,360.013 302.400 C 362.495 302.400,364.800 300.207,364.800 297.843 C 364.800 297.296,364.980 296.736,365.200 296.600 C 365.420 296.464,365.600 295.039,365.600 293.432 L 365.600 290.512 367.863 290.278 C 371.179 289.936,371.308 289.702,371.748 283.246 L 372.128 277.690 374.094 277.501 C 377.474 277.176,377.978 275.580,377.992 265.156 L 378.000 259.312 380.263 259.078 C 384.254 258.666,384.337 258.283,384.375 239.956 L 384.400 228.111 386.846 227.889 C 390.489 227.559,390.200 229.964,390.200 200.000 C 390.200 170.067,390.482 172.440,386.893 172.115 L 384.493 171.897 384.337 157.350 C 384.157 140.514,384.363 141.345,380.267 140.922 L 378.000 140.688 377.992 134.844 C 377.978 124.420,377.474 122.824,374.094 122.499 L 372.128 122.310 371.748 116.754 C 371.308 110.298,371.179 110.064,367.863 109.722 L 365.600 109.488 365.600 106.568 C 365.600 104.961,365.420 103.536,365.200 103.400 C 364.980 103.264,364.800 102.704,364.800 102.157 C 364.800 99.793,362.495 97.600,360.013 97.600 C 359.270 97.600,359.200 97.349,359.200 94.680 C 359.200 91.089,358.941 90.800,355.720 90.800 L 353.200 90.800 353.195 88.500 C 353.188 85.656,352.871 84.400,352.161 84.400 C 351.862 84.400,351.239 83.661,350.778 82.758 C 350.188 81.600,349.484 80.921,348.396 80.458 L 346.851 79.800 346.574 76.848 C 346.235 73.248,345.695 72.604,342.699 72.230 L 340.493 71.954 340.323 69.611 C 340.104 66.575,339.603 66.000,337.180 66.000 C 334.683 66.000,334.000 65.317,334.000 62.820 C 334.000 60.396,333.425 59.896,330.384 59.676 L 328.035 59.506 327.793 57.653 C 327.319 54.019,327.217 53.939,322.400 53.407 C 320.305 53.175,320.169 53.089,319.542 51.612 C 319.077 50.514,318.404 49.814,317.242 49.222 C 316.339 48.761,315.600 48.138,315.600 47.839 C 315.600 47.129,314.344 46.812,311.500 46.805 L 309.200 46.800 309.200 44.280 C 309.200 41.059,308.911 40.800,305.320 40.800 C 302.651 40.800,302.400 40.730,302.400 39.987 C 302.400 37.505,300.207 35.200,297.843 35.200 C 297.296 35.200,296.736 35.020,296.600 34.800 C 296.464 34.580,295.036 34.400,293.426 34.400 L 290.499 34.400 290.315 32.180 C 290.042 28.893,289.733 28.715,283.510 28.266 C 277.885 27.860,277.616 27.745,277.606 25.744 C 277.591 22.633,275.760 22.061,265.700 22.024 L 259.200 22.000 259.198 20.700 C 259.189 15.752,259.688 15.902,242.552 15.691 L 228.103 15.513 227.882 13.073 C 227.729 11.390,227.442 10.473,226.954 10.117 C 225.882 9.333,174.079 9.362,173.006 10.146 M241.769 123.183 C 243.992 123.698,245.308 124.811,245.994 126.754 C 246.516 128.232,246.791 128.487,248.261 128.857 C 250.325 129.377,251.504 130.583,252.170 132.857 C 252.622 134.401,252.931 134.721,254.876 135.662 C 256.566 136.480,257.186 137.033,257.569 138.062 C 258.618 140.884,259.203 142.000,259.633 142.000 C 261.287 142.000,262.943 143.445,264.007 145.816 C 264.907 147.822,265.447 148.478,266.829 149.248 C 268.055 149.931,268.981 150.935,270.103 152.800 C 270.963 154.230,272.225 155.760,272.906 156.200 C 274.293 157.095,276.402 159.780,277.621 162.200 C 278.064 163.080,278.915 164.203,279.513 164.696 C 283.158 167.700,283.287 167.855,283.780 169.813 C 284.233 171.610,284.430 171.849,285.841 172.318 C 287.942 173.015,289.029 174.213,289.704 176.571 C 290.205 178.327,290.439 178.601,291.834 179.073 C 293.737 179.717,295.034 181.111,295.586 183.106 C 296.161 185.183,296.416 185.490,298.404 186.506 C 301.238 187.954,302.400 191.877,302.400 200.000 C 302.400 208.123,301.238 212.046,298.404 213.494 C 296.416 214.510,296.161 214.817,295.586 216.894 C 295.034 218.889,293.737 220.283,291.834 220.927 C 290.439 221.399,290.205 221.673,289.704 223.429 C 289.029 225.787,287.942 226.985,285.841 227.682 C 284.430 228.151,284.233 228.390,283.780 230.187 C 283.287 232.145,283.158 232.300,279.513 235.304 C 278.915 235.797,278.064 236.920,277.621 237.800 C 276.402 240.220,274.293 242.905,272.906 243.800 C 272.225 244.240,270.963 245.770,270.103 247.200 C 268.981 249.065,268.055 250.069,266.829 250.752 C 265.447 251.522,264.907 252.178,264.007 254.184 C 262.943 256.555,261.287 258.000,259.633 258.000 C 259.203 258.000,258.618 259.116,257.569 261.938 C 257.186 262.967,256.566 263.520,254.876 264.338 C 252.931 265.279,252.622 265.599,252.170 267.143 C 251.498 269.434,250.322 270.624,248.199 271.158 C 246.740 271.526,246.423 271.786,246.200 272.799 C 245.413 276.382,242.288 277.350,232.250 277.120 C 224.162 276.935,223.475 276.718,220.036 273.268 C 217.276 270.499,216.585 269.309,216.183 266.626 C 215.964 265.164,215.546 264.320,214.551 263.325 C 211.606 260.379,211.586 257.148,214.488 253.142 C 215.137 252.246,216.012 250.178,216.451 248.501 C 217.562 244.259,218.172 243.256,220.176 242.370 C 222.257 241.449,222.573 241.088,223.230 238.873 C 223.776 237.036,225.071 235.740,226.765 235.336 C 228.301 234.970,228.675 234.545,228.945 232.853 C 229.276 230.785,230.454 229.398,232.567 228.591 C 234.152 227.986,234.371 227.739,234.788 226.084 C 235.083 224.912,235.737 223.788,236.596 222.978 L 237.941 221.709 236.424 221.255 C 235.321 220.924,218.760 220.800,175.754 220.799 C 117.603 220.798,110.874 220.669,108.600 219.510 C 107.401 218.899,105.600 217.119,105.600 216.546 C 105.600 215.917,103.340 214.193,102.000 213.799 C 99.538 213.076,98.577 211.301,97.964 206.347 C 97.124 199.551,97.916 190.181,99.512 188.031 C 100.239 187.052,100.607 186.814,103.364 185.539 C 104.004 185.242,105.032 184.182,105.648 183.182 C 108.182 179.068,105.734 179.207,175.754 179.203 C 218.755 179.201,235.321 179.076,236.424 178.745 L 237.941 178.291 236.596 177.022 C 235.737 176.212,235.083 175.088,234.788 173.916 C 234.371 172.261,234.152 172.014,232.567 171.409 C 230.454 170.602,229.276 169.215,228.945 167.147 C 228.675 165.455,228.301 165.030,226.765 164.664 C 225.071 164.260,223.776 162.964,223.230 161.127 C 222.573 158.912,222.257 158.551,220.176 157.630 C 218.245 156.776,217.696 155.924,216.428 151.805 C 215.955 150.267,215.147 148.557,214.632 148.005 C 211.114 144.223,211.107 138.974,214.615 135.760 C 215.425 135.019,216.007 134.099,216.018 133.546 C 216.086 129.832,221.042 124.187,225.064 123.242 C 227.096 122.764,239.770 122.719,241.769 123.183 " stroke="none" fill="#fcfcfc" fill-rule="evenodd"></path><path id="path1" d="M229.096 125.892 C 227.955 126.011,227.040 126.558,225.296 128.164 C 224.033 129.328,222.602 130.489,222.116 130.745 C 216.255 133.833,216.853 147.778,223.136 154.531 C 224.459 155.953,225.901 157.821,226.340 158.683 C 226.780 159.544,227.865 160.752,228.751 161.366 C 229.637 161.980,231.071 163.612,231.936 164.992 C 232.801 166.372,234.082 167.838,234.782 168.250 C 235.483 168.663,236.844 170.194,237.806 171.654 C 238.769 173.113,240.177 174.692,240.937 175.161 C 243.954 177.026,244.117 179.847,241.358 182.440 L 240.336 183.400 178.068 183.600 L 115.800 183.800 112.312 185.164 C 104.276 188.307,101.104 192.252,100.867 199.400 C 100.612 207.092,103.463 210.997,112.059 214.726 L 115.400 216.176 177.868 216.388 L 240.336 216.600 241.358 217.560 C 244.117 220.153,243.954 222.974,240.937 224.839 C 240.177 225.308,238.769 226.887,237.806 228.346 C 236.844 229.806,235.483 231.337,234.782 231.750 C 234.082 232.162,232.801 233.628,231.936 235.008 C 231.071 236.388,229.637 238.020,228.751 238.634 C 227.865 239.248,226.786 240.444,226.353 241.292 C 225.921 242.139,224.438 244.063,223.058 245.567 C 217.474 251.652,216.415 263.841,221.113 267.965 C 222.012 268.754,223.664 270.208,224.785 271.195 C 229.798 275.609,237.513 275.462,242.614 270.855 C 243.987 269.615,245.711 268.239,246.445 267.798 C 247.180 267.357,248.460 265.970,249.290 264.716 C 250.120 263.461,251.439 261.932,252.222 261.318 C 253.005 260.703,254.453 258.995,255.439 257.522 C 256.425 256.049,257.722 254.429,258.321 253.922 C 258.919 253.415,260.293 251.830,261.373 250.400 C 262.454 248.970,264.448 246.630,265.805 245.200 C 267.161 243.770,268.736 241.862,269.303 240.959 C 269.871 240.057,271.046 238.756,271.914 238.068 C 272.782 237.381,274.157 235.779,274.969 234.509 C 275.781 233.239,277.144 231.701,277.999 231.091 C 278.854 230.481,280.191 228.931,280.971 227.648 C 281.756 226.356,283.081 224.856,283.939 224.288 C 284.828 223.699,286.004 222.348,286.700 221.116 C 287.366 219.935,288.730 218.299,289.729 217.479 C 290.729 216.660,292.112 215.003,292.802 213.797 C 293.492 212.591,294.856 210.622,295.834 209.422 C 300.571 203.606,300.571 196.394,295.834 190.578 C 294.856 189.378,293.492 187.409,292.802 186.203 C 292.112 184.997,290.729 183.340,289.729 182.521 C 288.730 181.701,287.366 180.065,286.700 178.884 C 286.004 177.652,284.828 176.301,283.939 175.712 C 283.081 175.144,281.756 173.644,280.971 172.352 C 280.191 171.069,278.854 169.519,277.999 168.909 C 277.144 168.299,275.781 166.761,274.969 165.491 C 274.157 164.221,272.782 162.619,271.914 161.932 C 271.046 161.244,269.871 159.943,269.303 159.041 C 268.736 158.138,267.161 156.230,265.805 154.800 C 264.448 153.370,262.454 151.030,261.373 149.600 C 260.293 148.170,258.919 146.585,258.321 146.078 C 257.722 145.571,256.425 143.951,255.439 142.478 C 254.453 141.005,253.005 139.297,252.222 138.682 C 251.439 138.068,250.122 136.542,249.294 135.291 C 248.398 133.937,246.945 132.448,245.700 131.609 C 244.551 130.834,242.985 129.458,242.219 128.552 C 240.124 126.072,235.786 125.193,229.096 125.892 " stroke="none" fill="#a9c093" fill-rule="evenodd"></path><path id="path2" d="M225.064 123.242 C 221.042 124.187,216.086 129.832,216.018 133.546 C 216.007 134.099,215.425 135.019,214.615 135.760 C 211.107 138.974,211.114 144.223,214.632 148.005 C 215.147 148.557,215.955 150.267,216.428 151.805 C 217.696 155.924,218.245 156.776,220.176 157.630 C 222.257 158.551,222.573 158.912,223.230 161.127 C 223.776 162.964,225.071 164.260,226.765 164.664 C 228.301 165.030,228.675 165.455,228.945 167.147 C 229.276 169.215,230.454 170.602,232.567 171.409 C 234.152 172.014,234.371 172.261,234.788 173.916 C 235.083 175.088,235.737 176.212,236.596 177.022 L 237.941 178.291 236.424 178.745 C 235.321 179.076,218.755 179.201,175.754 179.203 C 105.734 179.207,108.182 179.068,105.648 183.182 C 105.032 184.182,104.004 185.242,103.364 185.539 C 100.607 186.814,100.239 187.052,99.512 188.031 C 97.916 190.181,97.124 199.551,97.964 206.347 C 98.577 211.301,99.538 213.076,102.000 213.799 C 103.340 214.193,105.600 215.917,105.600 216.546 C 105.600 217.119,107.401 218.899,108.600 219.510 C 110.874 220.669,117.603 220.798,175.754 220.799 C 218.760 220.800,235.321 220.924,236.424 221.255 L 237.941 221.709 236.596 222.978 C 235.737 223.788,235.083 224.912,234.788 226.084 C 234.371 227.739,234.152 227.986,232.567 228.591 C 230.454 229.398,229.276 230.785,228.945 232.853 C 228.675 234.545,228.301 234.970,226.765 235.336 C 225.071 235.740,223.776 237.036,223.230 238.873 C 222.573 241.088,222.257 241.449,220.176 242.370 C 218.172 243.256,217.562 244.259,216.451 248.501 C 216.012 250.178,215.137 252.246,214.488 253.142 C 211.586 257.148,211.606 260.379,214.551 263.325 C 215.546 264.320,215.964 265.164,216.183 266.626 C 216.585 269.309,217.276 270.499,220.036 273.268 C 223.475 276.718,224.162 276.935,232.250 277.120 C 242.288 277.350,245.413 276.382,246.200 272.799 C 246.423 271.786,246.740 271.526,248.199 271.158 C 250.322 270.624,251.498 269.434,252.170 267.143 C 252.622 265.599,252.931 265.279,254.876 264.338 C 256.566 263.520,257.186 262.967,257.569 261.938 C 258.618 259.116,259.203 258.000,259.633 258.000 C 261.287 258.000,262.943 256.555,264.007 254.184 C 264.907 252.178,265.447 251.522,266.829 250.752 C 268.055 250.069,268.981 249.065,270.103 247.200 C 270.963 245.770,272.225 244.240,272.906 243.800 C 274.293 242.905,276.402 240.220,277.621 237.800 C 278.064 236.920,278.915 235.797,279.513 235.304 C 283.158 232.300,283.287 232.145,283.780 230.187 C 284.233 228.390,284.430 228.151,285.841 227.682 C 287.942 226.985,289.029 225.787,289.704 223.429 C 290.205 221.673,290.439 221.399,291.834 220.927 C 293.737 220.283,295.034 218.889,295.586 216.894 C 296.161 214.817,296.416 214.510,298.404 213.494 C 301.238 212.046,302.400 208.123,302.400 200.000 C 302.400 191.877,301.238 187.954,298.404 186.506 C 296.416 185.490,296.161 185.183,295.586 183.106 C 295.034 181.111,293.737 179.717,291.834 179.073 C 290.439 178.601,290.205 178.327,289.704 176.571 C 289.029 174.213,287.942 173.015,285.841 172.318 C 284.430 171.849,284.233 171.610,283.780 169.813 C 283.287 167.855,283.158 167.700,279.513 164.696 C 278.915 164.203,278.064 163.080,277.621 162.200 C 276.402 159.780,274.293 157.095,272.906 156.200 C 272.225 155.760,270.963 154.230,270.103 152.800 C 268.981 150.935,268.055 149.931,266.829 149.248 C 265.447 148.478,264.907 147.822,264.007 145.816 C 262.943 143.445,261.287 142.000,259.633 142.000 C 259.203 142.000,258.618 140.884,257.569 138.062 C 257.186 137.033,256.566 136.480,254.876 135.662 C 252.931 134.721,252.622 134.401,252.170 132.857 C 251.504 130.583,250.325 129.377,248.261 128.857 C 246.791 128.487,246.516 128.232,245.994 126.754 C 245.308 124.811,243.992 123.698,241.769 123.183 C 239.770 122.719,227.096 122.764,225.064 123.242 M238.231 126.252 C 240.400 126.797,241.055 127.175,242.219 128.552 C 242.985 129.458,244.551 130.834,245.700 131.609 C 246.945 132.448,248.398 133.937,249.294 135.291 C 250.122 136.542,251.439 138.068,252.222 138.682 C 253.005 139.297,254.453 141.005,255.439 142.478 C 256.425 143.951,257.722 145.571,258.321 146.078 C 258.919 146.585,260.293 148.170,261.373 149.600 C 262.454 151.030,264.448 153.370,265.805 154.800 C 267.161 156.230,268.736 158.138,269.303 159.041 C 269.871 159.943,271.046 161.244,271.914 161.932 C 272.782 162.619,274.157 164.221,274.969 165.491 C 275.781 166.761,277.144 168.299,277.999 168.909 C 278.854 169.519,280.191 171.069,280.971 172.352 C 281.756 173.644,283.081 175.144,283.939 175.712 C 284.828 176.301,286.004 177.652,286.700 178.884 C 287.366 180.065,288.730 181.701,289.729 182.521 C 290.729 183.340,292.112 184.997,292.802 186.203 C 293.492 187.409,294.856 189.378,295.834 190.578 C 300.571 196.394,300.571 203.606,295.834 209.422 C 294.856 210.622,293.492 212.591,292.802 213.797 C 292.112 215.003,290.729 216.660,289.729 217.479 C 288.730 218.299,287.366 219.935,286.700 221.116 C 286.004 222.348,284.828 223.699,283.939 224.288 C 283.081 224.856,281.756 226.356,280.971 227.648 C 280.191 228.931,278.854 230.481,277.999 231.091 C 277.144 231.701,275.781 233.239,274.969 234.509 C 274.157 235.779,272.782 237.381,271.914 238.068 C 271.046 238.756,269.871 240.057,269.303 240.959 C 268.736 241.862,267.161 243.770,265.805 245.200 C 264.448 246.630,262.454 248.970,261.373 250.400 C 260.293 251.830,258.919 253.415,258.321 253.922 C 257.722 254.429,256.425 256.049,255.439 257.522 C 254.453 258.995,253.005 260.703,252.222 261.318 C 251.439 261.932,250.120 263.461,249.290 264.716 C 248.460 265.970,247.180 267.357,246.445 267.798 C 245.711 268.239,243.987 269.615,242.614 270.855 C 237.513 275.462,229.798 275.609,224.785 271.195 C 223.664 270.208,222.012 268.754,221.113 267.965 C 216.415 263.841,217.474 251.652,223.058 245.567 C 224.438 244.063,225.921 242.139,226.353 241.292 C 226.786 240.444,227.865 239.248,228.751 238.634 C 229.637 238.020,231.071 236.388,231.936 235.008 C 232.801 233.628,234.082 232.162,234.782 231.750 C 235.483 231.337,236.844 229.806,237.806 228.346 C 238.769 226.887,240.177 225.308,240.937 224.839 C 243.954 222.974,244.117 220.153,241.358 217.560 L 240.336 216.600 177.868 216.388 L 115.400 216.176 112.059 214.726 C 103.463 210.997,100.612 207.092,100.867 199.400 C 101.104 192.252,104.276 188.307,112.312 185.164 L 115.800 183.800 178.068 183.600 L 240.336 183.400 241.358 182.440 C 244.117 179.847,243.954 177.026,240.937 175.161 C 240.177 174.692,238.769 173.113,237.806 171.654 C 236.844 170.194,235.483 168.663,234.782 168.250 C 234.082 167.838,232.801 166.372,231.936 164.992 C 231.071 163.612,229.637 161.980,228.751 161.366 C 227.865 160.752,226.780 159.544,226.340 158.683 C 225.901 157.821,224.459 155.953,223.136 154.531 C 216.853 147.778,216.255 133.833,222.116 130.745 C 222.602 130.489,224.033 129.328,225.296 128.164 C 227.040 126.558,227.955 126.011,229.096 125.892 C 232.658 125.519,235.810 125.644,238.231 126.252 " stroke="none" fill="#ecf4e4" fill-rule="evenodd"></path><path id="path3" d="" stroke="none" fill="#f8100e0" fill-rule="evenodd"></path><path id="path4" d="" stroke="none" fill="#f8100e0" fill-rule="evenodd"></path></g></svg>